<mxfile host="Electron" agent="Mozilla/5.0 (Windows NT 10.0; Win64; x64) AppleWebKit/537.36 (KHTML, like Gecko) draw.io/28.0.6 Chrome/138.0.7204.100 Electron/37.2.3 Safari/537.36" version="28.0.6">
  <diagram name="Page-1" id="3QzqsA-SterBfVEvlQ4p">
    <mxGraphModel dx="872" dy="537" grid="1" gridSize="10" guides="1" tooltips="1" connect="1" arrows="1" fold="1" page="1" pageScale="1" pageWidth="850" pageHeight="1100" math="0" shadow="0">
      <root>
        <mxCell id="0" />
        <mxCell id="1" parent="0" />
        <mxCell id="NF1WEwznyzRVCKGdovKT-1" value="" style="rounded=0;whiteSpace=wrap;html=1;fillColor=none;dashed=1;" vertex="1" parent="1">
          <mxGeometry x="10" y="120" width="100" height="320" as="geometry" />
        </mxCell>
        <mxCell id="NF1WEwznyzRVCKGdovKT-2" value="&lt;span style=&quot;font-weight: normal;&quot;&gt;Sources&lt;/span&gt;" style="rounded=0;whiteSpace=wrap;html=1;fontStyle=1;strokeColor=none;" vertex="1" parent="1">
          <mxGeometry x="30" y="90" width="60" height="60" as="geometry" />
        </mxCell>
        <mxCell id="NF1WEwznyzRVCKGdovKT-4" value="" style="rounded=0;whiteSpace=wrap;html=1;fillColor=none;" vertex="1" parent="1">
          <mxGeometry x="160" y="120" width="400" height="320" as="geometry" />
        </mxCell>
        <mxCell id="NF1WEwznyzRVCKGdovKT-5" value="Data Warehouse" style="rounded=0;whiteSpace=wrap;html=1;strokeColor=none;fillColor=default;" vertex="1" parent="1">
          <mxGeometry x="300" y="90" width="120" height="60" as="geometry" />
        </mxCell>
        <mxCell id="NF1WEwznyzRVCKGdovKT-6" value="" style="rounded=0;whiteSpace=wrap;html=1;fillColor=none;dashed=1;" vertex="1" parent="1">
          <mxGeometry x="610" y="120" width="100" height="320" as="geometry" />
        </mxCell>
        <mxCell id="NF1WEwznyzRVCKGdovKT-7" value="Consumers" style="rounded=0;whiteSpace=wrap;html=1;strokeColor=none;" vertex="1" parent="1">
          <mxGeometry x="620" y="90" width="80" height="60" as="geometry" />
        </mxCell>
        <mxCell id="NF1WEwznyzRVCKGdovKT-8" value="Bronze Layer" style="rounded=0;whiteSpace=wrap;html=1;fillColor=default;" vertex="1" parent="1">
          <mxGeometry x="170" y="150" width="90" height="40" as="geometry" />
        </mxCell>
        <mxCell id="NF1WEwznyzRVCKGdovKT-9" value="" style="rounded=0;whiteSpace=wrap;html=1;fillColor=default;" vertex="1" parent="1">
          <mxGeometry x="170" y="200" width="90" height="210" as="geometry" />
        </mxCell>
        <mxCell id="NF1WEwznyzRVCKGdovKT-11" value="" style="rounded=0;whiteSpace=wrap;html=1;fillColor=default;" vertex="1" parent="1">
          <mxGeometry x="315" y="200" width="90" height="210" as="geometry" />
        </mxCell>
        <mxCell id="NF1WEwznyzRVCKGdovKT-12" value="" style="rounded=0;whiteSpace=wrap;html=1;fillColor=default;" vertex="1" parent="1">
          <mxGeometry x="460" y="200" width="90" height="210" as="geometry" />
        </mxCell>
        <mxCell id="NF1WEwznyzRVCKGdovKT-13" value="Silver Layer" style="rounded=0;whiteSpace=wrap;html=1;fillColor=default;" vertex="1" parent="1">
          <mxGeometry x="315" y="150" width="90" height="40" as="geometry" />
        </mxCell>
        <mxCell id="NF1WEwznyzRVCKGdovKT-14" value="Gold Layer" style="rounded=0;whiteSpace=wrap;html=1;fillColor=default;" vertex="1" parent="1">
          <mxGeometry x="460" y="150" width="90" height="40" as="geometry" />
        </mxCell>
        <mxCell id="NF1WEwznyzRVCKGdovKT-15" value="" style="image;aspect=fixed;html=1;points=[];align=center;fontSize=12;image=img/lib/azure2/general/Folder_Blank.svg;" vertex="1" parent="1">
          <mxGeometry x="39.99999999999999" y="200" width="36.96" height="30" as="geometry" />
        </mxCell>
        <mxCell id="NF1WEwznyzRVCKGdovKT-16" value="" style="verticalLabelPosition=bottom;html=1;verticalAlign=top;align=center;strokeColor=none;fillColor=#00BEF2;shape=mxgraph.azure.file_2;pointerEvents=1;" vertex="1" parent="1">
          <mxGeometry x="58.48" y="210" width="18.48" height="20" as="geometry" />
        </mxCell>
        <mxCell id="NF1WEwznyzRVCKGdovKT-18" value="&lt;font style=&quot;font-size: 10px;&quot;&gt;ERP&lt;/font&gt;" style="image;aspect=fixed;html=1;points=[];align=center;fontSize=12;image=img/lib/azure2/general/Folder_Blank.svg;" vertex="1" parent="1">
          <mxGeometry x="41.52" y="290" width="36.96" height="30" as="geometry" />
        </mxCell>
        <mxCell id="NF1WEwznyzRVCKGdovKT-20" value="" style="verticalLabelPosition=bottom;html=1;verticalAlign=top;align=center;strokeColor=none;fillColor=#00BEF2;shape=mxgraph.azure.file_2;pointerEvents=1;" vertex="1" parent="1">
          <mxGeometry x="60.00000000000001" y="300" width="18.48" height="20" as="geometry" />
        </mxCell>
        <mxCell id="NF1WEwznyzRVCKGdovKT-24" value="" style="html=1;verticalLabelPosition=bottom;align=center;labelBackgroundColor=#ffffff;verticalAlign=top;strokeWidth=2;strokeColor=#0080F0;shadow=0;dashed=0;shape=mxgraph.ios7.icons.data;" vertex="1" parent="1">
          <mxGeometry x="203" y="220.9" width="24" height="29.099999999999998" as="geometry" />
        </mxCell>
        <mxCell id="NF1WEwznyzRVCKGdovKT-25" value="" style="html=1;verticalLabelPosition=bottom;align=center;labelBackgroundColor=#ffffff;verticalAlign=top;strokeWidth=2;strokeColor=#0080F0;shadow=0;dashed=0;shape=mxgraph.ios7.icons.data;" vertex="1" parent="1">
          <mxGeometry x="348" y="220.9" width="24" height="29.099999999999998" as="geometry" />
        </mxCell>
        <mxCell id="NF1WEwznyzRVCKGdovKT-26" value="" style="html=1;verticalLabelPosition=bottom;align=center;labelBackgroundColor=#ffffff;verticalAlign=top;strokeWidth=2;strokeColor=#0080F0;shadow=0;dashed=0;shape=mxgraph.ios7.icons.data;" vertex="1" parent="1">
          <mxGeometry x="493" y="220.9" width="24" height="29.099999999999998" as="geometry" />
        </mxCell>
        <mxCell id="NF1WEwznyzRVCKGdovKT-27" value="" style="edgeStyle=orthogonalEdgeStyle;html=1;endArrow=block;elbow=vertical;startArrow=none;endFill=1;strokeColor=#545B64;rounded=0;" edge="1" parent="1">
          <mxGeometry width="100" relative="1" as="geometry">
            <mxPoint x="110" y="290" as="sourcePoint" />
            <mxPoint x="160" y="290" as="targetPoint" />
          </mxGeometry>
        </mxCell>
        <mxCell id="NF1WEwznyzRVCKGdovKT-31" value="" style="edgeStyle=orthogonalEdgeStyle;html=1;endArrow=block;elbow=vertical;startArrow=none;endFill=1;strokeColor=#545B64;rounded=0;entryX=0.011;entryY=0.429;entryDx=0;entryDy=0;entryPerimeter=0;" edge="1" parent="1" target="NF1WEwznyzRVCKGdovKT-11">
          <mxGeometry width="100" relative="1" as="geometry">
            <mxPoint x="260" y="290" as="sourcePoint" />
            <mxPoint x="310" y="290" as="targetPoint" />
          </mxGeometry>
        </mxCell>
        <mxCell id="NF1WEwznyzRVCKGdovKT-32" value="" style="edgeStyle=orthogonalEdgeStyle;html=1;endArrow=block;elbow=vertical;startArrow=none;endFill=1;strokeColor=#545B64;rounded=0;exitX=0.978;exitY=0.433;exitDx=0;exitDy=0;exitPerimeter=0;" edge="1" parent="1" source="NF1WEwznyzRVCKGdovKT-11">
          <mxGeometry width="100" relative="1" as="geometry">
            <mxPoint x="410" y="290" as="sourcePoint" />
            <mxPoint x="460" y="290" as="targetPoint" />
            <Array as="points">
              <mxPoint x="440" y="291" />
            </Array>
          </mxGeometry>
        </mxCell>
        <mxCell id="NF1WEwznyzRVCKGdovKT-33" value="" style="edgeStyle=orthogonalEdgeStyle;html=1;endArrow=block;elbow=vertical;startArrow=none;endFill=1;strokeColor=#545B64;rounded=0;entryX=0.01;entryY=0.531;entryDx=0;entryDy=0;entryPerimeter=0;" edge="1" parent="1" target="NF1WEwznyzRVCKGdovKT-6">
          <mxGeometry width="100" relative="1" as="geometry">
            <mxPoint x="560" y="290" as="sourcePoint" />
            <mxPoint x="660" y="290" as="targetPoint" />
          </mxGeometry>
        </mxCell>
        <mxCell id="NF1WEwznyzRVCKGdovKT-35" value="Raw Data" style="text;html=1;align=center;verticalAlign=middle;whiteSpace=wrap;rounded=0;fontSize=10;" vertex="1" parent="1">
          <mxGeometry x="185" y="250" width="60" height="30" as="geometry" />
        </mxCell>
        <mxCell id="NF1WEwznyzRVCKGdovKT-37" value="Standardized&amp;nbsp;&lt;div&gt;data&lt;/div&gt;" style="text;html=1;align=center;verticalAlign=middle;whiteSpace=wrap;rounded=0;fontSize=10;" vertex="1" parent="1">
          <mxGeometry x="330" y="260" width="60" height="30" as="geometry" />
        </mxCell>
        <mxCell id="NF1WEwznyzRVCKGdovKT-39" value="Business Ready Data" style="text;html=1;align=center;verticalAlign=middle;whiteSpace=wrap;rounded=0;fontSize=10;" vertex="1" parent="1">
          <mxGeometry x="475" y="260" width="60" height="30" as="geometry" />
        </mxCell>
        <mxCell id="NF1WEwznyzRVCKGdovKT-53" value="" style="image;aspect=fixed;html=1;points=[];align=center;fontSize=12;image=img/lib/azure2/power_platform/PowerBI.svg;" vertex="1" parent="1">
          <mxGeometry x="641.35" y="168.77" width="39.1" height="52.13" as="geometry" />
        </mxCell>
        <mxCell id="NF1WEwznyzRVCKGdovKT-55" value="" style="points=[];aspect=fixed;html=1;align=center;shadow=0;dashed=0;fillColor=#FF6A00;strokeColor=none;shape=mxgraph.alibaba_cloud.machine_learning;" vertex="1" parent="1">
          <mxGeometry x="636" y="320" width="49.8" height="50.099999999999994" as="geometry" />
        </mxCell>
        <mxCell id="NF1WEwznyzRVCKGdovKT-57" value="&lt;font size=&quot;1&quot;&gt;BI and Reporting&lt;/font&gt;" style="text;html=1;align=center;verticalAlign=middle;whiteSpace=wrap;rounded=0;" vertex="1" parent="1">
          <mxGeometry x="631" y="230" width="60" height="30" as="geometry" />
        </mxCell>
        <mxCell id="NF1WEwznyzRVCKGdovKT-58" value="Machine Learning" style="text;html=1;align=center;verticalAlign=middle;whiteSpace=wrap;rounded=0;fontSize=10;" vertex="1" parent="1">
          <mxGeometry x="631" y="380" width="60" height="30" as="geometry" />
        </mxCell>
        <mxCell id="NF1WEwznyzRVCKGdovKT-60" value="&lt;b&gt;Load:&lt;/b&gt;&lt;div&gt;Batch Processing&lt;/div&gt;&lt;div&gt;Full Load&lt;/div&gt;" style="text;html=1;whiteSpace=wrap;overflow=hidden;rounded=0;fontSize=10;" vertex="1" parent="1">
          <mxGeometry x="321.37" y="345" width="100" height="100" as="geometry" />
        </mxCell>
        <mxCell id="NF1WEwznyzRVCKGdovKT-61" value="&lt;b&gt;Load:&lt;/b&gt;&lt;div&gt;Batch Processing&lt;/div&gt;&lt;div&gt;Full Load&lt;/div&gt;" style="text;html=1;whiteSpace=wrap;overflow=hidden;rounded=0;fontSize=10;" vertex="1" parent="1">
          <mxGeometry x="176.37" y="350" width="100" height="100" as="geometry" />
        </mxCell>
        <mxCell id="NF1WEwznyzRVCKGdovKT-62" value="&lt;b&gt;Object Type:&amp;nbsp;&lt;/b&gt;&lt;span style=&quot;background-color: transparent; color: light-dark(rgb(0, 0, 0), rgb(255, 255, 255));&quot;&gt;Table&lt;/span&gt;" style="text;html=1;whiteSpace=wrap;overflow=hidden;rounded=0;fontSize=10;" vertex="1" parent="1">
          <mxGeometry x="170" y="300" width="100" height="30" as="geometry" />
        </mxCell>
        <mxCell id="NF1WEwznyzRVCKGdovKT-63" value="&lt;b&gt;Object Type:&amp;nbsp;&lt;/b&gt;&lt;span style=&quot;background-color: transparent; color: light-dark(rgb(0, 0, 0), rgb(255, 255, 255));&quot;&gt;Table&lt;/span&gt;" style="text;html=1;whiteSpace=wrap;overflow=hidden;rounded=0;fontSize=10;" vertex="1" parent="1">
          <mxGeometry x="315" y="300" width="100" height="30" as="geometry" />
        </mxCell>
        <mxCell id="NF1WEwznyzRVCKGdovKT-64" value="&lt;b&gt;Object Type: &lt;/b&gt;View" style="text;html=1;whiteSpace=wrap;overflow=hidden;rounded=0;fontSize=10;" vertex="1" parent="1">
          <mxGeometry x="460" y="300" width="100" height="30" as="geometry" />
        </mxCell>
        <mxCell id="NF1WEwznyzRVCKGdovKT-65" value="&lt;b&gt;Object Type:&amp;nbsp;&lt;/b&gt;&lt;div&gt;&lt;b&gt;&amp;nbsp; &amp;nbsp; &amp;nbsp; &amp;nbsp; &amp;nbsp; &amp;nbsp; &amp;nbsp; &amp;nbsp; &amp;nbsp; &amp;nbsp;&lt;/b&gt;CSV Files&lt;/div&gt;" style="text;html=1;whiteSpace=wrap;overflow=hidden;rounded=0;fontSize=10;" vertex="1" parent="1">
          <mxGeometry x="10" y="370.1" width="120" height="30" as="geometry" />
        </mxCell>
        <mxCell id="NF1WEwznyzRVCKGdovKT-66" value="Data Model:&lt;div&gt;&lt;span style=&quot;font-weight: normal;&quot;&gt;Star Schema&lt;/span&gt;&lt;/div&gt;&lt;div&gt;&lt;span style=&quot;font-weight: normal;&quot;&gt;Flat Table&lt;/span&gt;&lt;/div&gt;&lt;div&gt;&lt;span style=&quot;font-weight: normal;&quot;&gt;Aggregated Table&lt;/span&gt;&lt;/div&gt;" style="text;html=1;whiteSpace=wrap;overflow=hidden;rounded=0;fontStyle=1;fontSize=10;" vertex="1" parent="1">
          <mxGeometry x="465" y="340" width="90" height="85" as="geometry" />
        </mxCell>
        <mxCell id="NF1WEwznyzRVCKGdovKT-69" value="CRM" style="text;html=1;align=center;verticalAlign=middle;whiteSpace=wrap;rounded=0;fontSize=10;" vertex="1" parent="1">
          <mxGeometry x="28" y="230" width="60" height="30" as="geometry" />
        </mxCell>
      </root>
    </mxGraphModel>
  </diagram>
</mxfile>
